<?xml version="1.0" standalone="no"?>
<!DOCTYPE svg PUBLIC "-//W3C//DTD SVG 20010904//EN"
 "http://www.w3.org/TR/2001/REC-SVG-20010904/DTD/svg10.dtd">
<svg version="1.0" xmlns="http://www.w3.org/2000/svg"
 width="512.000000pt" height="512.000000pt" viewBox="0 0 512.000000 512.000000"
 preserveAspectRatio="xMidYMid meet">
<metadata>
Created by potrace 1.14, written by Peter Selinger 2001-2017
</metadata>
<g transform="translate(0.000000,512.000000) scale(0.100000,-0.100000)"
fill="#000000" stroke="none">
<path d="M3595 5104 c-326 -65 -629 -181 -812 -310 -43 -31 -112 -90 -153
-133 -119 -124 -177 -236 -205 -395 -19 -111 -19 -190 0 -298 31 -178 103
-285 204 -303 19 -3 37 -8 41 -10 12 -7 140 -19 205 -18 164 0 330 57 463 158
155 117 293 337 346 549 19 75 14 92 -31 101 -29 5 -36 -6 -73 -115 -119 -348
-299 -532 -570 -582 -101 -19 -329 -12 -352 10 -6 6 100 136 177 219 21 22 49
27 220 38 134 9 157 13 174 30 11 11 13 21 5 42 l-10 28 -94 -2 c-52 -1 -114
-5 -137 -7 -24 -3 -43 -3 -43 0 0 3 61 76 136 162 75 86 158 182 184 212 26
30 82 95 124 143 42 48 76 96 76 107 0 24 -37 50 -59 43 -9 -3 -26 -18 -39
-32 -50 -56 -258 -295 -269 -310 -11 -14 -13 -11 -14 19 0 19 -2 53 -4 75 -2
22 -6 67 -9 100 -7 78 -42 108 -81 68 -15 -14 -16 -30 -11 -107 4 -50 9 -132
12 -181 l6 -91 -33 -38 c-19 -22 -41 -47 -49 -56 -8 -8 -69 -79 -135 -155 -66
-77 -132 -153 -147 -170 -14 -16 -35 -41 -45 -54 l-19 -23 -17 38 c-45 105
-63 259 -45 384 32 224 227 445 519 587 145 71 367 145 503 169 17 2 38 7 46
9 8 2 34 7 58 10 l42 6 -5 -113 c-3 -62 -8 -126 -10 -143 -18 -153 -18 -172 5
-188 17 -12 28 -13 42 -6 37 20 44 66 54 326 l7 171 -26 26 c-29 29 -47 31
-152 10z"/>
<path d="M1276 4906 c-23 -22 -26 -34 -27 -93 -1 -93 2 -189 6 -216 2 -12 6
-52 10 -89 13 -139 67 -355 121 -486 137 -332 360 -528 643 -568 94 -13 241
-6 336 16 29 7 43 6 51 -3 9 -10 64 -132 64 -142 0 -2 -81 -3 -180 -4 -203 0
-241 -8 -301 -60 -61 -52 -89 -118 -86 -206 4 -111 62 -193 160 -225 27 -9 37
-17 37 -33 0 -12 0 -181 0 -375 0 -278 -3 -361 -14 -387 -12 -28 -136 -203
-294 -415 -47 -63 -57 -77 -173 -235 -56 -77 -118 -162 -139 -190 -121 -162
-417 -574 -428 -595 -78 -159 -41 -363 88 -484 48 -45 123 -89 176 -103 50
-13 1944 -15 1960 -2 17 14 18 65 2 76 -7 4 -443 8 -968 8 l-955 1 -56 26
c-152 70 -236 265 -175 408 12 29 122 188 201 291 l19 26 67 -24 c112 -39 208
-55 349 -58 212 -5 410 35 642 131 104 42 111 44 124 27 7 -10 14 -21 14 -25
0 -14 149 -206 171 -221 17 -12 27 -13 45 -5 35 16 31 56 -9 104 -19 21 -60
75 -91 119 l-57 80 43 18 c54 24 239 85 276 92 15 3 38 7 52 10 64 13 90 16
152 20 58 3 69 1 85 -18 11 -12 117 -156 237 -320 197 -269 217 -301 211 -328
-4 -16 -16 -34 -27 -40 -15 -8 -243 -12 -785 -12 -827 0 -793 2 -793 -52 0
-14 8 -28 18 -33 10 -5 351 -9 797 -8 608 1 785 4 802 14 58 33 99 129 80 187
-9 26 -149 224 -349 493 -86 115 -85 113 -46 106 66 -11 125 -25 203 -50 l80
-26 163 -224 c90 -123 173 -243 184 -266 16 -33 21 -61 20 -116 -1 -131 -76
-247 -192 -300 -48 -23 -69 -26 -185 -28 -71 -1 -136 -2 -143 -3 -7 -1 -18
-12 -24 -26 -9 -21 -8 -28 7 -45 17 -19 29 -21 154 -19 155 1 210 14 289 66
186 124 246 383 132 563 -16 25 -74 106 -129 180 -55 74 -110 150 -123 168
-13 18 -44 60 -69 95 -294 395 -685 938 -694 963 -6 19 -10 166 -10 402 l0
372 65 33 c54 27 70 41 97 86 94 156 16 349 -157 386 -19 4 -127 8 -240 8
l-205 0 -35 81 c-57 135 -150 284 -242 388 -18 20 -44 49 -57 65 -13 15 -64
74 -113 130 -49 57 -87 106 -85 110 5 9 20 221 21 301 1 55 -10 72 -46 72 -38
0 -55 -75 -58 -245 l0 -40 -38 42 c-54 60 -124 141 -168 194 -43 52 -59 60
-92 48 -38 -14 -28 -54 30 -123 29 -33 55 -63 58 -66 3 -3 32 -36 65 -75 33
-38 62 -72 65 -75 6 -6 188 -219 209 -244 9 -11 11 -17 6 -13 -6 3 -58 9 -115
12 -58 4 -107 9 -108 10 -2 2 -16 -1 -32 -6 -35 -13 -46 -48 -22 -71 17 -17
42 -20 240 -33 52 -4 102 -8 113 -10 21 -4 64 -50 132 -144 l49 -66 -64 -12
c-83 -16 -268 -9 -338 12 -30 10 -82 30 -115 47 -294 145 -484 569 -499 1116
-2 56 1 102 6 102 18 0 207 -43 289 -65 227 -64 432 -156 565 -255 83 -63 103
-70 128 -44 24 23 20 43 -16 77 -138 129 -460 273 -767 342 -226 52 -244 53
-275 21z m1246 -1711 c14 -50 29 -162 32 -225 l2 -60 -82 0 c-87 0 -114 -12
-114 -50 0 -47 15 -49 283 -50 139 0 260 0 270 0 16 0 17 -25 17 -387 0 -454
-8 -414 128 -597 45 -60 82 -110 82 -111 0 -1 -26 -20 -59 -41 -69 -46 -98
-84 -109 -145 -12 -60 4 -103 71 -192 81 -108 92 -127 76 -128 -128 -6 -299
-49 -491 -122 l-67 -26 -35 72 c-46 97 -64 151 -92 282 -22 101 -21 313 2 464
9 60 52 251 77 346 13 50 44 164 68 254 l43 164 -22 17 c-27 22 -60 15 -73
-14 -19 -45 -150 -552 -164 -636 -3 -19 -8 -42 -10 -50 -2 -8 -6 -35 -9 -60
-3 -25 -9 -56 -12 -70 -10 -45 -12 -303 -2 -375 17 -131 45 -218 134 -421 8
-18 -291 -131 -395 -149 -19 -3 -37 -7 -40 -9 -28 -18 -253 -25 -361 -13 -90
11 -250 54 -250 68 0 4 166 235 370 513 203 277 379 523 391 546 21 40 22 53
24 458 3 465 4 462 -59 462 -37 0 -89 31 -120 73 -49 67 -19 181 60 222 38 20
55 22 234 21 l194 -1 8 -30z m539 7 c95 -58 94 -206 -1 -269 -28 -20 -47 -23
-134 -24 -192 -1 -268 -1 -271 3 -1 2 -5 41 -9 88 -6 87 -12 128 -26 192 l-8
37 207 -2 c195 -2 208 -3 242 -25z m313 -1804 c91 -125 166 -229 166 -232 0
-2 -22 2 -50 9 -43 11 -93 20 -175 31 -11 1 -30 3 -42 3 -15 1 -47 36 -117
135 -53 73 -96 141 -96 150 0 10 7 30 16 45 18 30 116 103 125 93 4 -4 81
-109 173 -234z"/>
<path d="M1943 1358 c-64 -17 -113 -92 -113 -173 0 -38 36 -102 73 -129 40
-30 144 -30 183 0 47 35 67 70 71 126 5 65 -26 133 -72 160 -37 21 -99 28
-142 16z m99 -105 c47 -54 23 -120 -47 -128 -21 -3 -65 26 -66 43 0 9 -2 25
-4 34 -2 10 6 29 17 43 24 30 77 34 100 8z"/>
<path d="M920 4402 c-8 -3 -46 -36 -84 -74 l-69 -69 -71 70 c-44 44 -80 71
-93 71 -21 0 -53 -24 -53 -39 0 -13 41 -62 98 -117 l53 -50 -70 -70 c-77 -76
-86 -93 -64 -123 17 -26 47 -27 72 -3 10 9 43 41 74 71 l55 53 74 -71 c40 -39
80 -71 89 -71 19 0 49 31 49 51 0 7 -32 46 -72 86 l-72 73 34 37 c19 20 47 47
63 61 36 32 50 58 42 82 -8 24 -34 39 -55 32z"/>
<path d="M4010 3974 c-130 -47 -203 -154 -202 -297 0 -68 21 -107 57 -107 33
0 46 29 39 88 -14 121 60 219 178 235 163 21 286 -141 219 -289 -44 -97 -152
-145 -258 -115 -71 20 -101 -61 -34 -89 51 -21 140 -19 206 4 78 27 152 100
179 176 54 151 -14 321 -153 382 -62 28 -172 33 -231 12z"/>
<path d="M1315 3220 c-100 -22 -156 -97 -156 -208 0 -171 215 -261 340 -142
80 77 77 228 -7 305 -42 39 -116 58 -177 45z m96 -106 c76 -39 70 -161 -10
-194 -45 -18 -95 -5 -126 32 -23 27 -26 39 -22 75 9 85 84 126 158 87z"/>
<path d="M1158 2595 c-1 -2 -23 -5 -48 -6 -82 -6 -175 -47 -242 -107 -225
-202 -172 -588 98 -718 210 -101 469 -28 581 163 79 134 78 322 -1 457 -65
111 -183 188 -309 202 -28 3 -57 7 -64 9 -6 2 -13 2 -15 0z m145 -122 c264
-106 282 -489 30 -620 -181 -93 -396 -23 -482 157 -35 76 -37 211 -4 283 47
101 121 165 222 192 64 17 176 12 234 -12z"/>
<path d="M964 2282 c-21 -13 -36 -55 -41 -109 -14 -145 87 -262 232 -269 79
-4 125 17 125 57 0 36 -25 50 -71 40 -70 -16 -134 8 -167 61 -30 48 -34 86
-15 145 13 43 14 55 3 67 -13 17 -47 21 -66 8z"/>
<path d="M3707 2542 c-27 -29 -21 -45 42 -109 l60 -60 -60 -59 c-61 -61 -70
-82 -43 -108 26 -27 49 -18 105 39 30 30 58 55 62 55 4 0 33 -25 64 -55 69
-67 100 -72 117 -17 6 18 -3 33 -48 80 -31 33 -56 63 -56 68 0 5 22 30 49 56
62 59 72 85 41 110 -12 10 -27 18 -32 18 -5 0 -38 -27 -72 -59 l-61 -60 -62
60 c-66 63 -81 69 -106 41z"/>
<path d="M4274 1671 c-103 -47 -142 -190 -80 -295 35 -60 105 -96 180 -91 144
8 224 133 176 275 -37 110 -165 161 -276 111z m145 -90 c50 -27 65 -94 36
-152 -30 -57 -118 -68 -166 -20 -16 16 -30 37 -30 45 -5 57 -1 72 26 105 34
40 84 48 134 22z"/>
<path d="M1637 387 c-22 -18 -27 -43 -12 -63 11 -15 30 -18 125 -21 62 -1 120
2 130 7 26 14 31 49 11 69 -15 15 -37 18 -129 18 -70 1 -116 -3 -125 -10z"/>
</g>
</svg>
